<svg width="10" height="16" viewBox="0 0 10 16" fill="none" xmlns="http://www.w3.org/2000/svg">
<path d="M3.72159 10.9091V10.8239C3.73106 9.91951 3.82576 9.19981 4.00568 8.66477C4.18561 8.12973 4.44129 7.6965 4.77273 7.36506C5.10417 7.03362 5.50189 6.72822 5.96591 6.44886C6.24527 6.27841 6.49621 6.07718 6.71875 5.84517C6.94129 5.60843 7.11648 5.33617 7.24432 5.02841C7.37689 4.72064 7.44318 4.37973 7.44318 4.00568C7.44318 3.54167 7.33428 3.1392 7.11648 2.7983C6.89867 2.45739 6.60748 2.1946 6.2429 2.00994C5.87831 1.82528 5.47349 1.73295 5.02841 1.73295C4.64015 1.73295 4.2661 1.81345 3.90625 1.97443C3.5464 2.13542 3.24574 2.38873 3.00426 2.73438C2.76278 3.08002 2.62311 3.5322 2.58523 4.09091H0.795455C0.833333 3.28598 1.04167 2.59706 1.42045 2.02415C1.80398 1.45123 2.30824 1.01326 2.93324 0.710226C3.56297 0.407196 4.26136 0.255681 5.02841 0.255681C5.86174 0.255681 6.58617 0.421401 7.2017 0.75284C7.82197 1.08428 8.30019 1.53883 8.63636 2.11648C8.97727 2.69413 9.14773 3.35227 9.14773 4.09091C9.14773 4.61174 9.06723 5.08286 8.90625 5.50426C8.75 5.92566 8.52273 6.30208 8.22443 6.63352C7.93087 6.96496 7.57576 7.25852 7.15909 7.5142C6.74242 7.77462 6.40862 8.04924 6.15767 8.33807C5.90672 8.62216 5.72443 8.9607 5.6108 9.35369C5.49716 9.74669 5.43561 10.2367 5.42614 10.8239V10.9091H3.72159ZM4.63068 15.1136C4.2803 15.1136 3.97964 14.9882 3.72869 14.7372C3.47775 14.4863 3.35227 14.1856 3.35227 13.8352C3.35227 13.4848 3.47775 13.1842 3.72869 12.9332C3.97964 12.6823 4.2803 12.5568 4.63068 12.5568C4.98106 12.5568 5.28172 12.6823 5.53267 12.9332C5.78362 13.1842 5.90909 13.4848 5.90909 13.8352C5.90909 14.0672 5.84991 14.2803 5.73153 14.4744C5.6179 14.6686 5.46402 14.8248 5.26989 14.9432C5.08049 15.0568 4.86742 15.1136 4.63068 15.1136Z" fill="white"/>
</svg>
