<svg width="43" height="43" viewBox="0 0 43 43" fill="none" xmlns="http://www.w3.org/2000/svg">
<circle cx="21.5" cy="21.5" r="20.5" stroke="white" stroke-width="2"/>
<path d="M19.7216 24.9091V24.8239C19.7311 23.9195 19.8258 23.1998 20.0057 22.6648C20.1856 22.1297 20.4413 21.6965 20.7727 21.3651C21.1042 21.0336 21.5019 20.7282 21.9659 20.4489C22.2453 20.2784 22.4962 20.0772 22.7188 19.8452C22.9413 19.6084 23.1165 19.3362 23.2443 19.0284C23.3769 18.7206 23.4432 18.3797 23.4432 18.0057C23.4432 17.5417 23.3343 17.1392 23.1165 16.7983C22.8987 16.4574 22.6075 16.1946 22.2429 16.0099C21.8783 15.8253 21.4735 15.733 21.0284 15.733C20.6402 15.733 20.2661 15.8134 19.9062 15.9744C19.5464 16.1354 19.2457 16.3887 19.0043 16.7344C18.7628 17.08 18.6231 17.5322 18.5852 18.0909H16.7955C16.8333 17.286 17.0417 16.5971 17.4205 16.0241C17.804 15.4512 18.3082 15.0133 18.9332 14.7102C19.563 14.4072 20.2614 14.2557 21.0284 14.2557C21.8617 14.2557 22.5862 14.4214 23.2017 14.7528C23.822 15.0843 24.3002 15.5388 24.6364 16.1165C24.9773 16.6941 25.1477 17.3523 25.1477 18.0909C25.1477 18.6117 25.0672 19.0829 24.9062 19.5043C24.75 19.9257 24.5227 20.3021 24.2244 20.6335C23.9309 20.965 23.5758 21.2585 23.1591 21.5142C22.7424 21.7746 22.4086 22.0492 22.1577 22.3381C21.9067 22.6222 21.7244 22.9607 21.6108 23.3537C21.4972 23.7467 21.4356 24.2367 21.4261 24.8239V24.9091H19.7216ZM20.6307 29.1136C20.2803 29.1136 19.9796 28.9882 19.7287 28.7372C19.4777 28.4863 19.3523 28.1856 19.3523 27.8352C19.3523 27.4848 19.4777 27.1842 19.7287 26.9332C19.9796 26.6823 20.2803 26.5568 20.6307 26.5568C20.9811 26.5568 21.2817 26.6823 21.5327 26.9332C21.7836 27.1842 21.9091 27.4848 21.9091 27.8352C21.9091 28.0672 21.8499 28.2803 21.7315 28.4744C21.6179 28.6686 21.464 28.8248 21.2699 28.9432C21.0805 29.0568 20.8674 29.1136 20.6307 29.1136Z" fill="white"/>
</svg>
