<svg width="211" height="117" viewBox="0 0 211 117" fill="none" xmlns="http://www.w3.org/2000/svg">
<circle cx="86.5" cy="32.5" r="26" stroke="white" stroke-width="5"/>
<path d="M67 13.7265C67.8015 13.7755 67.9415 15.3803 68.5713 15.4574C69.3329 15.5507 70.4459 16.0538 71.2368 15.5948C72.8209 14.6756 73.7532 13.0891 75.3895 12.1879C76.2128 11.7343 77.0831 11.2611 77.7744 10.6218C77.9824 10.4294 78.1024 10.0422 78.4198 10.0173C78.9175 9.97834 79.4354 10.0173 79.9349 10.0173C81.8161 10.0173 84.3584 10.0219 85.1257 12.0505C85.8787 14.0414 86.6197 15.833 84.5224 17.2021C83.6399 17.7782 82.8507 17.6516 81.913 17.9577C81.2084 18.1877 80.4607 18.8039 79.8648 19.2902C78.5886 20.3316 76.8485 21.0464 76.8485 22.9994C76.8485 24.0426 76.3434 24.8506 76.3434 25.9667C76.3434 26.7536 76.3393 28.6239 77.101 29.0714C77.7606 29.459 77.7944 30.8812 77.578 31.5167C77.4589 31.8665 74.9124 32.5196 74.5196 32.5196C72.0511 32.5196 71.0404 34.0262 71.0404 36.2837C71.0404 37.2537 70.7327 38.7122 71.4893 39.251C71.8509 39.5085 72.383 39.2809 72.6958 39.5532C73.0866 39.8934 73.2547 40.1627 73.8743 40.1852C74.6594 40.2136 75.2896 40.8934 76.147 40.927C77.0273 40.9615 77.6957 41.2685 78.1672 42.0535C78.7444 43.0143 79.1212 43.531 79.1212 44.6911C79.1212 45.8413 78.7153 46.8616 80.1313 46.8616C82.2283 46.8616 83.6374 46.7733 85.1958 45.5016C85.5718 45.1948 87.6917 45.211 87.9456 45.6253C88.2093 46.0556 88.7338 45.6566 88.9837 46.0236C89.3123 46.5062 89.5467 47.086 89.9798 47.4798C91.3982 48.7696 91.2424 51.1834 91.2424 53.0436C91.2424 53.3723 91.4214 54.1935 90.9759 54.2662C90.4451 54.3528 89.8843 54.6116 89.9938 55.2553C90.0718 55.7132 90.1956 56.5055 90.7374 56.5055C91.4055 56.5055 91.8276 56.3249 92 57" stroke="white" stroke-width="3" stroke-linecap="round"/>
<path d="M73 56C72.8484 55.2706 71.8137 55.4745 71.75 54.9845C71.6706 54.3735 71.5 53.908 71.5 53.2208C71.5 52.1177 71.0832 50.11 71.9861 49.3861C72.8254 48.7132 72.1155 47.1999 71.625 46.6336C71.3204 46.282 70.5799 46.186 70.1528 45.9121C69.6478 45.5882 69.3874 45.3488 68.8611 45.1238C67.9569 44.7372 67.25 43.6041 67.25 42.7187C67.25 42.1146 67.2751 41.5051 67.25 40.9015C67.2381 40.6144 66.313 40.1954 66.0139 39.9796C65.828 39.8455 65.1369 39.1213 65.0139 38.9241C64.8123 38.6009 64.1207 38.6147 63.7361 38.4297C62.8818 38.0187 61 37.9777 61 37" stroke="white" stroke-width="3" stroke-linecap="round"/>
<path d="M101.086 11C101.086 12.5374 99.654 13.7968 100.079 15.2629C100.229 15.7825 100.25 16.2298 100.665 16.6243C100.924 16.8714 101.478 17.0112 101.508 17.3832C101.543 17.8074 101.337 19.124 101.719 19.124C103.271 19.124 101.229 22.029 101.086 21.713C100.809 21.0959 100.032 22.1741 100.032 22.4942C100.032 23.5259 100.526 23.3256 100.922 23.9672C101.103 24.2598 101.336 24.1689 101.614 24.2908C102.264 24.5768 101.937 25.3211 102.188 25.775C102.277 25.9364 103.772 26.4436 103.993 26.4669C104.72 26.5438 105.305 27.7204 105.305 26.3107C105.305 25.845 105.081 24.6887 105.352 24.302C105.706 23.7955 106.32 23.8634 106.617 23.2976C106.794 22.9609 107.297 23.0521 107.625 23.0521C108.214 23.0521 107.813 22.7146 108.141 22.4942C109.523 21.5651 109.122 19.6374 111 19.6374" stroke="white" stroke-width="3" stroke-linecap="round"/>
<path d="M113 36.085C112.047 36.085 111.094 36.085 110.141 36.085C109.71 36.085 108.068 35.8679 107.77 36.1276C107.472 36.3873 107.721 37.8164 107.721 38.1914C107.721 39.0236 106.446 39.1489 105.693 39.1489C104.671 39.1489 105.082 40.6563 105.082 41.3404C105.082 42.1926 105.299 42.5393 106.084 43.0213C106.77 43.443 107.061 43.8865 107.061 44.617C107.061 45.5167 106.401 46.0961 106.401 47" stroke="white" stroke-width="3" stroke-linecap="round"/>
<path d="M4.40341 49V12.6364H16.6903C19.5431 12.6364 21.875 13.1513 23.6861 14.1811C25.509 15.1991 26.8584 16.5781 27.7344 18.3182C28.6103 20.0582 29.0483 21.9995 29.0483 24.142C29.0483 26.2846 28.6103 28.2318 27.7344 29.9837C26.8703 31.7356 25.5327 33.1323 23.7216 34.174C21.9105 35.2038 19.5904 35.7188 16.7614 35.7188H7.95455V31.8125H16.6193C18.5724 31.8125 20.1409 31.4751 21.3246 30.8004C22.5083 30.1257 23.3665 29.2143 23.8991 28.0661C24.4437 26.906 24.7159 25.598 24.7159 24.142C24.7159 22.6861 24.4437 21.384 23.8991 20.2358C23.3665 19.0876 22.5024 18.188 21.3068 17.5369C20.1113 16.8741 18.5251 16.5426 16.5483 16.5426H8.80682V49H4.40341ZM35.5735 49V21.7273H39.6218V25.8466H39.9059C40.4031 24.4972 41.3027 23.4022 42.6048 22.5618C43.9068 21.7214 45.3746 21.3011 47.0082 21.3011C47.3159 21.3011 47.7006 21.3071 48.1623 21.3189C48.6239 21.3307 48.9731 21.3485 49.2099 21.3722V25.6335C49.0678 25.598 48.7423 25.5447 48.2333 25.4737C47.7362 25.3909 47.2094 25.3494 46.6531 25.3494C45.3273 25.3494 44.1436 25.6276 43.1019 26.1839C42.0721 26.7285 41.2553 27.486 40.6516 28.4567C40.0598 29.4155 39.7638 30.5104 39.7638 31.7415V49H35.5735Z" fill="white"/>
<path d="M126.835 21.7273H131.026V50.9886C131.026 52.6695 130.736 54.1255 130.156 55.3565C129.587 56.5876 128.723 57.5405 127.563 58.2152C126.415 58.8899 124.965 59.2273 123.213 59.2273C123.071 59.2273 122.929 59.2273 122.787 59.2273C122.645 59.2273 122.503 59.2273 122.361 59.2273V55.321C122.503 55.321 122.633 55.321 122.751 55.321C122.87 55.321 123 55.321 123.142 55.321C124.42 55.321 125.356 54.9422 125.947 54.1847C126.539 53.4389 126.835 52.3736 126.835 50.9886V21.7273ZM128.895 17.1818C128.078 17.1818 127.374 16.9036 126.782 16.3473C126.202 15.791 125.912 15.1222 125.912 14.3409C125.912 13.5597 126.202 12.8909 126.782 12.3345C127.374 11.7782 128.078 11.5 128.895 11.5C129.712 11.5 130.41 11.7782 130.99 12.3345C131.582 12.8909 131.878 13.5597 131.878 14.3409C131.878 15.1222 131.582 15.791 130.99 16.3473C130.41 16.9036 129.712 17.1818 128.895 17.1818ZM150.135 49.5682C147.507 49.5682 145.24 48.9882 143.335 47.8281C141.441 46.6562 139.979 45.0227 138.949 42.9276C137.931 40.8205 137.422 38.3703 137.422 35.5767C137.422 32.7831 137.931 30.321 138.949 28.1903C139.979 26.0478 141.411 24.3788 143.246 23.1832C145.093 21.9759 147.247 21.3722 149.709 21.3722C151.129 21.3722 152.532 21.6089 153.917 22.0824C155.302 22.5559 156.563 23.3253 157.699 24.3906C158.835 25.4441 159.741 26.8409 160.416 28.581C161.09 30.321 161.428 32.4635 161.428 35.0085V36.7841H140.405V33.1619H157.166C157.166 31.6231 156.859 30.25 156.243 29.0426C155.639 27.8352 154.775 26.8823 153.651 26.1839C152.538 25.4856 151.224 25.1364 149.709 25.1364C148.04 25.1364 146.596 25.5507 145.377 26.3793C144.169 27.196 143.24 28.2614 142.589 29.5753C141.938 30.8892 141.612 32.2978 141.612 33.8011V36.2159C141.612 38.2756 141.968 40.0215 142.678 41.4538C143.4 42.8743 144.4 43.9574 145.678 44.7031C146.957 45.437 148.442 45.804 150.135 45.804C151.236 45.804 152.23 45.6501 153.118 45.3423C154.018 45.0227 154.793 44.5492 155.444 43.9219C156.095 43.2827 156.598 42.4896 156.953 41.5426L161.002 42.679C160.575 44.0521 159.859 45.2595 158.853 46.3011C157.847 47.331 156.604 48.1359 155.124 48.7159C153.645 49.2841 151.982 49.5682 150.135 49.5682ZM178.882 49.5682C176.325 49.5682 174.123 48.9645 172.276 47.7571C170.43 46.5497 169.009 44.8866 168.015 42.7678C167.021 40.6489 166.524 38.2282 166.524 35.5057C166.524 32.7358 167.033 30.2914 168.051 28.1726C169.08 26.0419 170.513 24.3788 172.347 23.1832C174.194 21.9759 176.348 21.3722 178.811 21.3722C180.728 21.3722 182.456 21.7273 183.995 22.4375C185.534 23.1477 186.795 24.142 187.777 25.4205C188.76 26.6989 189.369 28.1903 189.606 29.8949H185.416C185.096 28.652 184.386 27.5511 183.285 26.5923C182.196 25.6217 180.728 25.1364 178.882 25.1364C177.248 25.1364 175.816 25.5625 174.585 26.4148C173.365 27.2552 172.413 28.4448 171.726 29.9837C171.051 31.5107 170.714 33.304 170.714 35.3636C170.714 37.4706 171.045 39.3054 171.708 40.8679C172.383 42.4304 173.33 43.6437 174.549 44.5078C175.78 45.3719 177.224 45.804 178.882 45.804C179.971 45.804 180.959 45.6146 181.847 45.2358C182.735 44.857 183.486 44.3125 184.102 43.6023C184.717 42.892 185.155 42.0398 185.416 41.0455H189.606C189.369 42.6553 188.783 44.1054 187.848 45.3956C186.925 46.674 185.7 47.692 184.173 48.4496C182.658 49.1953 180.894 49.5682 178.882 49.5682ZM207.593 21.7273V25.2784H193.459V21.7273H207.593ZM197.578 15.1932H201.769V41.1875C201.769 42.3712 201.94 43.259 202.284 43.8509C202.639 44.4309 203.088 44.8215 203.633 45.0227C204.189 45.2121 204.775 45.3068 205.391 45.3068C205.852 45.3068 206.231 45.2831 206.527 45.2358C206.823 45.1766 207.06 45.1293 207.237 45.0938L208.09 48.858C207.806 48.9645 207.409 49.071 206.9 49.1776C206.391 49.2959 205.746 49.3551 204.965 49.3551C203.781 49.3551 202.621 49.1006 201.485 48.5916C200.36 48.0826 199.425 47.3073 198.679 46.2656C197.945 45.224 197.578 43.91 197.578 42.3239V15.1932Z" fill="white"/>
<path d="M46.8949 105H42.2784L55.6307 68.6364H60.1761L73.5284 105H68.9119L58.0455 74.3892H57.7614L46.8949 105ZM48.5994 90.7955H67.2074V94.7017H48.5994V90.7955ZM88.7761 77.7273V81.2784H74.6426V77.7273H88.7761ZM78.7619 71.1932H82.9522V97.1875C82.9522 98.3712 83.1239 99.259 83.4672 99.8509C83.8223 100.431 84.2721 100.821 84.8166 101.023C85.3729 101.212 85.9589 101.307 86.5744 101.307C87.036 101.307 87.4148 101.283 87.7108 101.236C88.0067 101.177 88.2434 101.129 88.421 101.094L89.2733 104.858C88.9892 104.964 88.5926 105.071 88.0836 105.178C87.5746 105.296 86.9295 105.355 86.1483 105.355C84.9645 105.355 83.8045 105.101 82.6681 104.592C81.5436 104.083 80.6085 103.307 79.8627 102.266C79.1288 101.224 78.7619 99.91 78.7619 98.3239V71.1932ZM99.8556 68.6364V105H95.6653V68.6364H99.8556ZM115.556 105.639C113.828 105.639 112.259 105.314 110.851 104.663C109.442 104 108.324 103.047 107.495 101.804C106.666 100.549 106.252 99.0341 106.252 97.2585C106.252 95.696 106.56 94.4295 107.175 93.4588C107.791 92.4763 108.614 91.7069 109.643 91.1506C110.673 90.5942 111.81 90.1799 113.053 89.9077C114.307 89.6236 115.568 89.3987 116.835 89.233C118.492 89.0199 119.835 88.8601 120.865 88.7536C121.907 88.6352 122.664 88.4399 123.138 88.1676C123.623 87.8954 123.866 87.4219 123.866 86.7472V86.6051C123.866 84.8532 123.386 83.492 122.428 82.5213C121.481 81.5507 120.042 81.0653 118.113 81.0653C116.112 81.0653 114.544 81.5033 113.408 82.3793C112.271 83.2552 111.472 84.1903 111.011 85.1847L107.033 83.7642C107.744 82.107 108.691 80.8168 109.874 79.8935C111.07 78.9583 112.372 78.3073 113.781 77.9403C115.201 77.5616 116.598 77.3722 117.971 77.3722C118.847 77.3722 119.853 77.4787 120.989 77.6918C122.138 77.893 123.244 78.3132 124.31 78.9524C125.387 79.5916 126.281 80.5563 126.991 81.8466C127.701 83.1368 128.056 84.8651 128.056 87.0312V105H123.866V101.307H123.653C123.369 101.899 122.895 102.532 122.232 103.207C121.569 103.881 120.688 104.455 119.587 104.929C118.486 105.402 117.142 105.639 115.556 105.639ZM116.195 101.875C117.853 101.875 119.249 101.549 120.386 100.898C121.534 100.247 122.398 99.407 122.978 98.3771C123.57 97.3473 123.866 96.2642 123.866 95.1278V91.2926C123.688 91.5057 123.298 91.701 122.694 91.8786C122.102 92.0443 121.415 92.1922 120.634 92.3224C119.865 92.4408 119.113 92.5473 118.379 92.642C117.657 92.7249 117.071 92.7959 116.621 92.8551C115.532 92.9972 114.514 93.228 113.567 93.5476C112.632 93.8554 111.875 94.3229 111.295 94.9503C110.727 95.5658 110.442 96.4062 110.442 97.4716C110.442 98.9276 110.981 100.028 112.058 100.774C113.147 101.508 114.526 101.875 116.195 101.875ZM155.023 83.8352L151.258 84.9006C151.022 84.2732 150.672 83.6636 150.211 83.0717C149.761 82.468 149.145 81.9709 148.364 81.5803C147.583 81.1896 146.583 80.9943 145.363 80.9943C143.694 80.9943 142.304 81.379 141.191 82.1484C140.09 82.906 139.54 83.8707 139.54 85.0426C139.54 86.0843 139.918 86.907 140.676 87.5107C141.434 88.1143 142.617 88.6174 144.227 89.0199L148.275 90.0142C150.714 90.6061 152.531 91.5116 153.726 92.7308C154.922 93.9382 155.52 95.4948 155.52 97.4006C155.52 98.9631 155.07 100.36 154.17 101.591C153.282 102.822 152.04 103.793 150.442 104.503C148.844 105.213 146.985 105.568 144.866 105.568C142.085 105.568 139.782 104.964 137.959 103.757C136.136 102.55 134.982 100.786 134.497 98.4659L138.474 97.4716C138.853 98.9394 139.569 100.04 140.623 100.774C141.688 101.508 143.079 101.875 144.795 101.875C146.748 101.875 148.299 101.461 149.447 100.632C150.607 99.7917 151.187 98.7855 151.187 97.6136C151.187 96.6667 150.856 95.8736 150.193 95.2344C149.53 94.5833 148.512 94.098 147.139 93.7784L142.594 92.7131C140.096 92.1212 138.261 91.2038 137.089 89.9609C135.929 88.7062 135.349 87.1378 135.349 85.2557C135.349 83.7169 135.781 82.3556 136.645 81.1719C137.521 79.9882 138.711 79.0589 140.214 78.3842C141.729 77.7095 143.446 77.3722 145.363 77.3722C148.062 77.3722 150.181 77.964 151.72 79.1477C153.271 80.3314 154.372 81.8939 155.023 83.8352Z" fill="white"/>
</svg>
